# xmcd
#
# Track frame offsets:
# 161
# 14627
# 27037
# 43691
# 60076
# 77009
# 93328
# 107783
# 119279
# 134054
# 152680
# 169891
#
# Disc length: 2505 seconds
#
#
# Revision: 0
# Processed by: cddbd v1.5.1PL0 Copyright (c) Steve Scherf et al.
# Submitted via: FreeRIP 2.91 
#
DISCID=9409c70c
DTITLE=Gian e Giovani - Secessos de Ouro
DYEAR=1997
DGENRE=Sertaneja
TTITLE0=Amente anônimo
TTITLE1=Espuma da cerveja
TTITLE2=Nem dormindo consigo te esquecer
TTITLE3=Caçador de corações
TTITLE4=Sua vez
TTITLE5=Sonhos de brinquedo
TTITLE6=Nos braços da desilusão
TTITLE7=Estou de olho em você
TTITLE8=Com outro foi embora
TTITLE9=Você vai me perdoar
TTITLE10=Me chama de volta
TTITLE11=Dois irmãos
EXTD=
EXTT0=
EXTT1=
EXTT2=
EXTT3=
EXTT4=
EXTT5=
EXTT6=
EXTT7=
EXTT8=
EXTT9=
EXTT10=
EXTT11=
PLAYORDER=
